<?xml version="1.0" standalone="no"?>
<!DOCTYPE svg PUBLIC "-//W3C//DTD SVG 20010904//EN"
 "http://www.w3.org/TR/2001/REC-SVG-20010904/DTD/svg10.dtd">
<svg version="1.0" xmlns="http://www.w3.org/2000/svg"
 width="391.000000pt" height="391.000000pt" viewBox="0 0 391.000000 391.000000"
 preserveAspectRatio="xMidYMid meet">
<metadata>
Created by potrace 1.11, written by Peter Selinger 2001-2013
</metadata>
<g transform="translate(0.000000,391.000000) scale(0.100000,-0.100000)"
fill="#000000" stroke="none">
<path d="M2033 3586 c-85 -28 -153 -86 -195 -166 -17 -34 -24 -66 -26 -127 -4
-71 -1 -88 23 -142 32 -70 93 -132 163 -164 36 -17 66 -22 127 -22 69 0 88 5
138 30 64 32 114 81 149 147 19 36 23 58 23 138 0 106 -15 147 -81 220 -73 81
-218 120 -321 86z m-73 -226 c0 -5 -2 -10 -4 -10 -3 0 -8 5 -11 10 -3 6 -1 10
4 10 6 0 11 -4 11 -10z m164 -6 c18 -18 20 -42 5 -64 -8 -12 -9 -10 -4 7 4 15
-1 29 -14 42 -12 12 -24 21 -27 21 -3 0 -19 -15 -36 -32 l-30 -33 18 30 c30
49 59 59 88 29z m-4 -43 c0 -6 -4 -13 -10 -16 -5 -3 -10 1 -10 9 0 9 5 16 10
16 6 0 10 -4 10 -9z m94 -15 c3 2 4 1 1 -2 -2 -4 2 -16 10 -27 12 -18 12 -24
-2 -47 -13 -23 -20 -26 -46 -21 -17 4 -32 12 -35 20 -3 10 0 10 17 -1 16 -10
25 -10 39 -2 25 16 22 56 -6 70 -33 17 -40 27 -10 15 14 -5 29 -8 32 -5z
m-158 -32 c1 -9 0 -13 -4 -10 -3 4 -7 14 -8 22 -1 9 0 13 4 10 3 -4 7 -14 8
-22z m107 2 c4 -10 1 -13 -9 -9 -15 6 -19 23 -5 23 5 0 11 -7 14 -14z m-39 -8
c-3 -4 -14 -8 -25 -8 -11 0 -18 4 -15 8 2 4 14 8 25 8 11 0 17 -4 15 -8z m203
-64 c-3 -3 -12 -4 -19 -1 -8 3 -5 6 6 6 11 1 17 -2 13 -5z m-160 -126 c-3 -8
-6 -5 -6 6 -1 11 2 17 5 13 3 -3 4 -12 1 -19z"/>
<path d="M1013 3390 c-171 -35 -283 -198 -252 -367 44 -243 337 -346 521 -184
168 148 134 424 -64 520 -70 33 -141 44 -205 31z m17 -258 c0 -15 -2 -15 -10
-2 -13 20 -13 33 0 25 6 -3 10 -14 10 -23z m153 -9 c-7 -2 -19 -2 -25 0 -7 3
-2 5 12 5 14 0 19 -2 13 -5z m-123 -18 c0 -8 -4 -15 -10 -15 -5 0 -10 7 -10
15 0 8 5 15 10 15 6 0 10 -7 10 -15z m-91 -47 c-8 -14 -14 -18 -17 -10 -4 13
17 46 25 38 3 -2 -1 -15 -8 -28z m166 12 c-3 -5 -14 -10 -23 -10 -15 0 -15 2
-2 10 20 13 33 13 25 0z m-45 -30 c0 -5 -2 -10 -4 -10 -3 0 -8 5 -11 10 -3 6
-1 10 4 10 6 0 11 -4 11 -10z m77 4 c-3 -3 -12 -4 -19 -1 -8 3 -5 6 6 6 11 1
17 -2 13 -5z m7 -39 c3 -8 1 -15 -3 -15 -5 0 -11 7 -15 15 -3 8 -1 15 3 15 5
0 11 -7 15 -15z m-59 -24 c-3 -6 -11 -11 -17 -11 -6 0 -6 6 2 15 14 17 26 13
15 -4z m-40 -1 c-3 -5 -14 -10 -23 -10 -15 0 -15 2 -2 10 20 13 33 13 25 0z"/>
<path d="M349 2690 c-88 -15 -163 -71 -207 -154 -37 -72 -39 -188 -2 -259 45
-88 130 -147 235 -163 28 -4 55 -14 62 -23 10 -15 12 -14 18 1 4 10 11 16 15
13 5 -3 12 1 17 8 4 8 23 22 40 31 53 27 103 76 131 130 22 43 27 64 27 131 0
67 -5 88 -27 131 -60 114 -181 175 -309 154z m53 -129 c11 -17 14 -18 35 -4
14 10 23 11 23 4 0 -6 -8 -11 -17 -11 -15 0 -16 -2 -3 -10 9 -6 17 -5 21 2 6
9 12 8 23 -2 9 -7 20 -10 24 -6 4 4 -4 16 -17 27 -24 20 -24 23 3 13 9 -3 20
-23 26 -44 6 -23 18 -41 29 -45 11 -3 22 -12 25 -20 3 -8 12 -15 21 -15 25 0
55 -38 55 -69 0 -34 -30 -61 -67 -61 -14 0 -23 -6 -23 -15 0 -8 -11 -22 -24
-31 -21 -13 -29 -14 -52 -2 -15 7 -29 20 -31 28 -3 10 -1 9 7 -2 12 -19 46
-23 70 -9 8 6 14 25 13 48 -1 37 0 37 14 16 9 -13 22 -23 31 -23 22 0 52 30
52 52 0 24 -38 61 -56 54 -8 -3 -14 1 -14 8 0 7 -7 19 -15 26 -12 10 -16 8
-24 -12 -5 -13 -16 -30 -25 -37 -9 -7 -13 -17 -10 -22 7 -13 34 -11 34 2 0 5
-6 7 -12 4 -7 -4 -4 1 6 9 22 18 32 20 40 8 8 -13 -41 -50 -56 -41 -19 13 -30
11 -22 -3 4 -7 -4 -3 -18 10 -13 12 -29 22 -35 22 -12 0 -17 12 -29 70 -3 19
-12 38 -18 43 -8 5 -7 10 4 17 13 9 13 11 0 20 -21 14 -36 12 -50 -5 -10 -13
-10 -19 2 -33 26 -29 28 -49 7 -68 -10 -9 -19 -12 -19 -6 0 6 5 14 10 17 8 5
7 12 -2 23 -11 13 -11 14 1 8 9 -6 12 -5 9 5 -3 8 -11 13 -17 12 -6 -2 -11 2
-11 7 0 15 -17 12 -35 -6 -11 -11 -14 -26 -10 -43 3 -17 2 -21 -3 -13 -5 8
-15 13 -23 12 -28 -4 -38 0 -44 21 -8 26 20 59 49 58 18 0 16 -2 -6 -11 -27
-9 -39 -44 -21 -61 7 -7 53 39 53 54 0 5 8 9 18 9 10 0 25 9 35 20 21 25 53
26 69 1z m-2 -95 c0 -8 -4 -17 -9 -21 -12 -7 -24 12 -16 25 9 15 25 12 25 -4z
m-85 -16 c3 -5 -1 -10 -9 -10 -9 0 -16 5 -16 10 0 6 4 10 9 10 6 0 13 -4 16
-10z m-40 -16 c14 -6 13 -8 -5 -21 -23 -16 -27 -53 -5 -53 8 0 15 9 15 20 0
23 15 27 23 6 11 -29 -42 -51 -72 -30 -21 15 -29 58 -13 68 5 3 7 -9 5 -27
l-4 -32 14 24 c8 14 13 31 10 38 -6 14 6 17 32 7z m105 -33 c0 -7 -52 -33 -56
-28 -2 2 -1 12 2 23 4 16 12 20 30 16 13 -2 24 -7 24 -11z m40 -2 c0 -5 -4 -9
-8 -9 -5 0 -9 7 -9 15 0 8 4 12 9 9 4 -3 8 -9 8 -15z m4 -30 c-5 -9 1 -10 20
-5 28 7 32 2 14 -18 -10 -10 -15 -10 -29 3 -16 13 -17 31 -3 31 3 0 2 -5 -2
-11z m-69 -18 c7 -12 -12 -24 -25 -16 -11 7 -4 25 10 25 5 0 11 -4 15 -9z m55
-11 c0 -5 -9 -10 -20 -10 -11 0 -20 5 -20 10 0 6 9 10 20 10 11 0 20 -4 20
-10z m-126 -9 c3 -5 -1 -11 -9 -15 -37 -14 5 -76 51 -76 15 0 38 12 55 29 16
16 29 25 29 20 0 -6 -11 -21 -25 -34 -30 -31 -94 -35 -117 -7 -19 22 -28 48
-20 57 4 4 8 11 8 16 1 5 2 11 3 14 2 8 19 6 25 -4z"/>
<path d="M408 2517 c4 -14 7 -16 13 -5 12 19 11 25 -5 25 -8 0 -11 -8 -8 -20z"/>
<path d="M435 2504 c-20 -20 -15 -39 11 -39 13 0 18 6 16 19 -2 10 2 23 10 27
10 7 9 9 -4 9 -9 0 -24 -7 -33 -16z"/>
<path d="M490 2511 c0 -6 6 -11 13 -11 8 0 7 -3 -3 -9 -8 -6 -18 -7 -24 -4 -5
3 -6 1 -3 -4 9 -14 -29 -47 -42 -38 -6 3 -11 1 -11 -4 0 -6 5 -11 11 -11 7 0
17 -7 23 -16 10 -14 15 -13 39 6 30 24 37 70 12 90 -10 9 -15 9 -15 1z m20
-48 c0 -5 -5 -15 -10 -23 -8 -12 -10 -11 -10 8 0 12 5 22 10 22 6 0 10 -3 10
-7z"/>
<path d="M1815 2615 c-297 -56 -558 -227 -722 -472 -52 -79 -133 -247 -133
-277 0 -19 -18 -31 -65 -46 -64 -20 -121 -65 -144 -113 -18 -37 -21 -62 -21
-172 0 -111 3 -135 21 -173 24 -50 87 -96 156 -114 41 -11 43 -14 68 -87 70
-200 203 -375 387 -512 356 -264 859 -278 1233 -35 201 131 367 340 439 553
12 37 29 70 37 74 8 5 36 18 63 31 27 13 63 41 80 62 31 38 31 38 34 179 2 85
-1 157 -7 179 -13 43 -77 102 -130 119 -48 16 -58 24 -65 61 -10 50 -91 212
-145 291 -104 151 -290 303 -460 377 -129 56 -249 81 -406 86 -97 2 -165 -1
-220 -11z m205 -160 c-2 -11 27 -23 58 -24 13 -1 30 -8 38 -16 19 -19 60 -10
92 19 l24 21 -4 -35 c-3 -35 7 -44 90 -86 14 -7 16 -34 2 -34 -5 0 -22 -23
-36 -52 -15 -29 -36 -65 -47 -80 l-21 -28 22 -16 c30 -21 28 -37 -3 -32 -22 5
-25 3 -18 -16 8 -25 8 -43 -2 -73 -6 -18 -3 -23 10 -23 14 0 15 -3 5 -15 -16
-19 -6 -32 30 -40 28 -6 30 -9 24 -45 -9 -53 12 -63 46 -22 19 23 29 28 40 22
8 -6 25 -10 37 -10 38 0 35 -18 -7 -56 -49 -45 -76 -92 -61 -107 9 -9 28 -6
109 18 18 6 21 4 16 -9 -3 -9 -1 -16 5 -16 6 0 11 9 11 20 0 31 20 24 21 -7 1
-16 2 -41 3 -58 1 -16 3 -47 4 -67 2 -29 5 -36 18 -31 9 3 13 12 9 22 -3 9 3
6 13 -7 15 -19 20 -20 33 -10 20 16 31 56 18 64 -5 3 -18 22 -28 42 l-19 37
-7 -28 c-4 -15 -5 -39 -3 -52 7 -33 2 -32 -17 5 -18 35 -19 44 -3 34 8 -5 9
-2 4 12 -4 10 -10 35 -12 54 l-4 35 14 -40 c10 -28 14 -33 15 -18 1 32 22 80
28 65 4 -10 8 -10 21 0 15 12 16 11 3 -4 -7 -10 -17 -16 -21 -13 -10 6 3 -54
17 -80 6 -11 40 -47 74 -80 35 -33 64 -63 65 -67 1 -5 2 -12 3 -18 0 -5 15
-16 31 -25 18 -9 30 -23 30 -35 0 -11 5 -20 11 -20 6 0 8 7 5 16 -3 8 -2 13 3
10 18 -12 21 -57 6 -87 -30 -58 -109 -86 -151 -54 -18 14 -17 14 9 5 41 -15
62 -12 88 10 l24 19 -35 -5 c-46 -7 -139 27 -171 64 -16 18 -18 22 -4 11 11
-9 31 -22 45 -28 22 -11 21 -9 -6 16 -26 23 -32 36 -32 71 0 23 1 42 2 42 1 0
13 -15 26 -32 22 -31 22 -32 2 -14 -18 16 -22 16 -22 4 0 -8 9 -27 20 -40 35
-45 140 -45 140 0 0 30 -38 81 -77 102 -25 13 -29 18 -13 14 23 -6 23 -5 -9
25 -18 17 -35 31 -38 31 -3 0 -3 -14 1 -32 3 -17 3 -29 0 -25 -4 3 -13 0 -21
-8 -11 -12 -18 -12 -33 -3 -14 9 -22 10 -31 1 -13 -13 0 -44 34 -80 11 -13 16
-23 11 -23 -16 0 -56 60 -70 104 -12 39 -13 40 -14 11 -2 -29 -2 -29 -9 -5 -4
14 -3 37 1 52 12 33 7 80 -8 85 -31 10 -24 -110 11 -194 10 -24 12 -40 5 -53
-6 -10 -10 -35 -10 -56 0 -31 3 -36 20 -31 11 3 20 1 20 -4 0 -5 11 -8 25 -7
14 1 25 7 25 13 0 11 -41 40 -52 37 -5 -1 -8 4 -8 12 0 8 -3 22 -7 32 -4 12
-3 15 5 10 16 -10 15 -1 -4 35 -8 17 -14 33 -12 35 2 2 14 -17 26 -42 12 -25
17 -42 11 -38 -7 4 -10 1 -7 -7 3 -8 10 -14 16 -14 7 0 11 -3 10 -7 -2 -3 9
-16 25 -28 15 -12 27 -26 27 -32 0 -6 -3 -9 -6 -5 -6 5 -15 0 -49 -31 -11 -10
-15 -8 -20 8 -7 22 -45 28 -45 6 0 -20 21 -76 29 -76 3 0 12 9 19 21 7 12 16
18 19 15 3 -3 0 -13 -8 -22 -13 -16 -5 -28 16 -25 3 1 14 -8 25 -19 12 -12 25
-18 30 -15 6 4 10 0 10 -8 0 -7 11 -19 25 -25 21 -10 27 -9 32 4 10 26 -16 92
-50 125 l-32 31 42 -22 c23 -13 40 -26 38 -30 -8 -13 66 -10 101 5 44 18 42
18 47 3 2 -7 3 -5 2 4 -2 9 8 27 21 39 38 36 28 44 -11 10 -20 -17 -39 -31
-43 -31 -4 0 8 12 27 27 44 35 61 79 60 155 l-1 63 -8 -51 c-4 -28 -13 -60
-19 -70 -11 -17 -12 -17 -7 6 18 79 19 100 2 100 -9 0 -16 -6 -16 -13 0 -7 -6
-21 -13 -31 -12 -16 -13 -16 -13 6 0 13 4 26 9 29 5 3 -5 9 -22 12 -59 12
-145 121 -112 141 17 11 -1 44 -26 51 -14 3 -27 4 -29 2 -8 -7 17 -76 37 -101
l20 -26 -22 8 c-12 5 -23 16 -25 25 -1 9 -7 32 -14 52 -10 31 -14 34 -28 23
-15 -12 -15 -11 0 12 9 14 20 24 25 24 4 -1 20 -4 34 -8 22 -5 28 -2 33 16 3
15 0 26 -10 31 -14 8 -13 10 3 23 25 19 26 18 73 -21 48 -40 50 -41 50 -20 0
9 -21 29 -47 45 -26 17 -41 30 -34 30 7 0 26 -9 42 -21 32 -23 37 -15 13 19
-14 21 -14 22 4 19 11 -2 31 -16 46 -32 25 -28 26 -28 15 -5 -6 14 -18 33 -27
43 -8 9 -13 20 -10 23 14 13 99 -175 97 -215 0 -9 -6 2 -13 24 -8 26 -14 35
-18 25 -4 -9 -7 -5 -7 12 -1 15 -14 41 -30 58 l-29 32 5 -27 c4 -16 10 -24 19
-21 19 7 29 -77 15 -125 -12 -38 -45 -79 -65 -79 -5 0 -1 6 10 14 18 14 18 17
4 43 -17 30 -60 57 -72 45 -4 -4 -1 -27 6 -52 19 -64 94 -108 97 -57 l2 22 4
-22 c8 -40 26 -26 20 14 -6 37 7 35 16 -2 3 -11 4 8 2 43 -2 34 -2 62 0 62 3
0 14 -19 26 -42 16 -32 22 -63 24 -128 1 -53 1 -60 -2 -20 -6 93 -21 96 -20 3
1 -46 -4 -87 -12 -101 -7 -13 -10 -26 -8 -29 3 -3 12 8 21 24 21 38 20 20 -1
-20 -9 -18 -20 -68 -24 -113 -4 -49 -15 -97 -28 -121 -21 -43 -95 -113 -118
-113 -7 0 -13 -7 -13 -15 0 -26 -29 -74 -73 -123 -83 -90 -333 -231 -427 -240
-43 -4 -55 -1 -75 18 l-23 22 -7 -22 c-5 -15 -13 -20 -25 -17 -10 3 -21 0 -23
-7 -8 -19 -122 -20 -141 0 -9 9 -23 13 -32 10 -9 -3 -30 5 -50 20 -29 23 -35
24 -40 10 -9 -23 -40 -20 -58 6 -9 12 -16 17 -16 11 0 -15 -53 2 -70 22 -6 8
-17 12 -24 9 -7 -3 -20 11 -29 31 -14 29 -21 35 -38 30 -24 -8 -49 10 -49 37
0 10 -4 17 -9 14 -5 -3 -14 1 -21 9 -11 14 -6 15 42 9 l56 -6 42 53 c28 37 54
58 80 67 21 7 50 24 65 37 21 20 25 32 23 67 -2 38 -9 49 -76 113 -69 67 -72
73 -62 99 15 39 13 151 -3 164 -7 6 -28 11 -47 11 -348 -3 -411 -6 -422 -17
-21 -21 -37 -13 -59 31 -31 58 -32 132 -2 155 20 15 20 19 7 36 -38 52 5 136
92 179 l31 16 -13 51 c-23 90 6 197 61 222 19 9 30 7 58 -10 33 -19 34 -19 30
-1 -10 35 8 128 30 161 28 41 68 48 108 19 22 -17 30 -18 41 -8 8 6 25 18 38
26 14 8 46 32 72 54 41 35 56 40 115 47 37 4 69 4 71 -1 5 -13 86 3 112 22 26
19 52 21 50 4z m760 -835 c0 -5 -4 -10 -10 -10 -5 0 -10 5 -10 10 0 6 5 10 10
10 6 0 10 -4 10 -10z m-14 -112 l19 -21 -27 18 c-29 18 -34 25 -20 25 5 0 17
-10 28 -22z m-65 -19 c5 -8 8 -21 8 -29 0 -10 -2 -11 -6 -2 -7 19 -23 4 -16
-16 9 -25 -2 -12 -25 30 l-21 37 26 -3 c13 -2 29 -9 34 -17z m-59 -243 c16
-23 9 -38 -14 -30 -28 8 -60 35 -53 43 4 3 11 -1 16 -9 9 -12 10 -10 6 7 -5
20 -3 22 16 11 12 -6 25 -16 29 -22z"/>
<path d="M1715 2030 c-3 -6 -17 -7 -31 -4 -15 4 -34 0 -49 -10 -15 -10 -26
-12 -30 -6 -11 18 -53 11 -69 -12 -9 -12 -13 -32 -10 -44 4 -16 0 -24 -15 -29
-23 -7 -35 -36 -26 -65 4 -14 2 -20 -9 -20 -25 0 -49 -45 -37 -68 9 -17 7 -21
-14 -26 -32 -8 -44 -50 -21 -75 12 -13 14 -21 7 -26 -15 -8 -14 -48 1 -63 7
-7 24 -12 38 -12 14 0 31 5 38 12 14 14 16 50 2 64 -5 5 -7 19 -4 31 5 19 9
21 26 12 11 -6 30 -8 43 -5 14 4 27 0 35 -9 7 -8 21 -15 32 -15 11 0 16 -5 13
-10 -4 -6 1 -22 10 -36 18 -29 61 -30 78 -3 16 25 0 68 -28 75 -18 4 -25 13
-25 31 0 17 -8 27 -31 37 -26 11 -28 14 -15 25 20 17 53 -4 60 -41 7 -36 48
-48 76 -23 26 24 25 49 -3 72 -34 26 -40 60 -15 85 12 12 18 28 14 40 -3 15 3
27 20 40 26 21 32 56 12 76 -15 15 -64 16 -73 2z m65 -30 c0 -5 -4 -10 -10
-10 -5 0 -10 5 -10 10 0 6 5 10 10 10 6 0 10 -4 10 -10z m-80 -10 c0 -5 -4
-10 -10 -10 -5 0 -10 5 -10 10 0 6 5 10 10 10 6 0 10 -4 10 -10z m-95 -10 c3
-5 -1 -10 -10 -10 -9 0 -13 5 -10 10 3 6 8 10 10 10 2 0 7 -4 10 -10z m135
-70 c0 -5 -4 -10 -10 -10 -5 0 -10 5 -10 10 0 6 5 10 10 10 6 0 10 -4 10 -10z
m-85 -10 c3 -5 1 -10 -4 -10 -6 0 -11 5 -11 10 0 6 2 10 4 10 3 0 8 -4 11 -10z
m-95 -10 c0 -5 -4 -10 -10 -10 -5 0 -10 5 -10 10 0 6 5 10 10 10 6 0 10 -4 10
-10z m155 -60 c3 -5 -1 -10 -10 -10 -9 0 -13 5 -10 10 3 6 8 10 10 10 2 0 7
-4 10 -10z m-175 -10 c0 -5 -2 -10 -4 -10 -3 0 -8 5 -11 10 -3 6 -1 10 4 10 6
0 11 -4 11 -10z m80 0 c0 -5 -4 -10 -10 -10 -5 0 -10 5 -10 10 0 6 5 10 10 10
6 0 10 -4 10 -10z m-100 -20 c0 -5 -4 -10 -10 -10 -5 0 -10 5 -10 10 0 6 5 10
10 10 6 0 10 -4 10 -10z m240 -40 c0 -5 -4 -10 -10 -10 -5 0 -10 5 -10 10 0 6
5 10 10 10 6 0 10 -4 10 -10z m-190 -20 c0 -5 -4 -10 -10 -10 -5 0 -10 5 -10
10 0 6 5 10 10 10 6 0 10 -4 10 -10z m85 -20 c3 -5 1 -10 -4 -10 -6 0 -11 5
-11 10 0 6 2 10 4 10 3 0 8 -4 11 -10z m-185 -10 c0 -5 -4 -10 -10 -10 -5 0
-10 5 -10 10 0 6 5 10 10 10 6 0 10 -4 10 -10z m245 -60 c3 -5 -1 -10 -10 -10
-9 0 -13 5 -10 10 3 6 8 10 10 10 2 0 7 -4 10 -10z m-235 -26 c0 -8 -5 -12
-10 -9 -6 4 -8 11 -5 16 9 14 15 11 15 -7z"/>
<path d="M2705 1801 c-3 -5 4 -13 16 -16 28 -9 36 1 10 14 -12 7 -22 7 -26 2z"/>
<path d="M2693 1738 c3 -27 8 -33 28 -35 13 0 35 -4 49 -8 24 -7 23 -6 -5 14
l-29 20 28 -3 c20 -2 34 -12 44 -32 10 -19 17 -24 20 -15 2 7 -15 32 -39 55
-23 22 -37 33 -30 24 16 -22 -1 -24 -19 -3 -7 8 -21 15 -32 15 -16 0 -18 -6
-15 -32z"/>
<path d="M2685 1670 c-6 -10 19 -60 30 -60 4 0 -12 61 -19 67 -2 2 -7 -1 -11
-7z"/>
<path d="M2790 1661 c12 -23 30 -36 30 -22 0 21 -13 41 -26 41 -11 0 -12 -4
-4 -19z"/>
<path d="M2871 1640 c0 -8 4 -24 9 -35 l9 -20 0 20 c0 11 -4 27 -9 35 -9 13
-10 13 -9 0z"/>
<path d="M2444 1453 c-18 -42 -15 -176 5 -210 10 -17 10 -17 11 2 1 11 4 14 7
7 10 -24 22 -1 13 24 -6 14 -10 49 -10 77 -1 42 -3 49 -11 33 -7 -10 -9 -40
-6 -70 4 -34 3 -43 -3 -26 -13 39 -11 84 4 105 7 11 17 34 20 52 11 47 -11 52
-30 6z"/>
<path d="M2758 1445 c4 -37 -5 -45 -58 -56 -34 -7 -34 -7 -5 -8 17 0 41 6 53
15 26 18 30 7 5 -12 -10 -7 -31 -14 -48 -15 l-30 -1 30 -9 c31 -9 89 4 100 22
7 11 -20 41 -29 32 -3 -4 -3 7 0 24 4 21 2 32 -8 35 -10 4 -13 -2 -10 -27z"/>
<path d="M2404 1265 c-37 -53 -39 -74 -3 -39 18 19 30 39 27 50 -3 16 -6 14
-24 -11z"/>
<path d="M2847 1273 c-4 -3 -7 -18 -7 -33 0 -49 -31 -119 -66 -150 -19 -16
-40 -30 -47 -30 -7 0 2 9 19 19 35 22 73 90 80 148 l5 38 -20 -49 c-11 -28
-28 -57 -36 -65 -11 -11 -7 3 9 39 19 40 22 56 13 62 -7 4 -13 2 -15 -5 -1 -7
-11 -18 -21 -24 -16 -10 -17 -8 -13 13 3 20 0 24 -18 24 -17 0 -21 -4 -16 -17
6 -15 4 -15 -14 2 -11 10 -20 13 -20 7 0 -6 4 -13 9 -16 4 -3 5 -24 1 -46 -6
-34 -5 -39 7 -28 8 7 13 22 10 35 -4 23 -3 23 14 7 20 -18 25 -29 10 -20 -5 3
-12 -1 -15 -10 -5 -13 -2 -15 14 -11 27 7 27 -33 0 -58 -18 -16 -25 -65 -9
-65 3 0 25 13 47 30 49 35 81 93 89 161 6 48 4 56 -10 42z"/>
<path d="M2480 1209 c0 -6 -4 -7 -10 -4 -5 3 -10 4 -10 1 0 -3 14 -12 30 -21
17 -9 30 -13 30 -9 0 4 7 1 15 -6 23 -19 18 4 -5 25 -23 21 -50 28 -50 14z"/>
<path d="M2550 1195 c7 -8 20 -15 28 -15 13 0 12 3 -4 15 -25 19 -40 19 -24 0z"/>
<path d="M2597 1149 c7 -7 15 -10 18 -7 3 3 -2 9 -12 12 -14 6 -15 5 -6 -5z"/>
<path d="M2510 1143 c0 -4 5 -15 10 -23 8 -13 10 -13 10 2 0 9 -4 20 -10 23
-5 3 -10 3 -10 -2z"/>
<path d="M2694 1139 c-9 -15 13 -36 25 -23 6 5 4 14 -4 21 -10 9 -16 10 -21 2z"/>
<path d="M2584 1109 c3 -34 4 -36 39 -44 39 -10 36 17 -5 38 -31 16 -31 16 -5
11 36 -8 35 1 -2 14 -28 10 -29 9 -27 -19z"/>
<path d="M1847 1085 c3 -8 9 -12 14 -9 12 7 11 11 -5 17 -10 4 -13 1 -9 -8z"/>
<path d="M2540 1091 c0 -5 7 -15 17 -22 15 -13 15 -12 4 9 -12 23 -21 28 -21
13z"/>
<path d="M1925 1070 c3 -5 19 -10 34 -10 15 0 32 -5 39 -12 8 -8 12 -8 12 -1
0 6 -14 16 -31 22 -40 14 -62 14 -54 1z"/>
<path d="M2675 1057 c-4 -10 -5 -21 -1 -24 10 -10 18 4 13 24 -4 17 -4 17 -12
0z"/>
<path d="M2594 1052 c4 -7 17 -12 29 -13 21 0 21 -1 2 -9 -19 -8 -19 -9 3 -9
13 -1 22 5 22 14 0 8 -6 15 -14 15 -8 0 -22 3 -32 7 -12 4 -15 3 -10 -5z"/>
<path d="M2283 1029 c-13 -5 -23 -13 -23 -20 0 -6 7 -8 16 -5 9 3 24 6 35 6
10 0 19 4 19 9 0 14 -23 19 -47 10z"/>
<path d="M2570 988 c0 -8 -7 -21 -15 -28 -8 -7 -15 -16 -15 -21 0 -18 20 -8
36 17 13 19 14 28 5 37 -8 8 -11 7 -11 -5z"/>
<path d="M2385 921 c-6 -5 -19 -11 -30 -14 -11 -3 -5 -5 14 -4 19 1 36 8 39
15 4 14 -10 16 -23 3z"/>
<path d="M3290 2433 c0 -6 11 -60 25 -121 14 -61 25 -114 25 -119 0 -12 -43
83 -75 167 -53 138 -37 51 18 -103 30 -84 69 -192 86 -242 17 -49 67 -249 110
-443 43 -194 81 -356 85 -359 3 -4 12 -1 18 5 9 9 -1 65 -41 233 -29 121 -51
222 -49 224 2 2 39 -95 83 -216 44 -120 82 -219 85 -219 34 1 26 29 -105 369
-122 315 -142 377 -192 584 -30 128 -59 236 -64 242 -6 5 -9 5 -9 -2z"/>
<path d="M3674 1206 c-5 -12 76 -248 111 -321 8 -17 28 -69 45 -115 35 -96 51
-118 67 -98 8 10 0 42 -29 123 -32 87 -130 348 -155 413 -7 16 -32 15 -39 -2z"/>
<path d="M3583 1183 c-7 -3 -13 -13 -13 -22 0 -22 111 -503 124 -536 8 -22 36
-18 36 5 0 42 -115 540 -127 551 -5 3 -14 4 -20 2z"/>
</g>
</svg>
